<svg width="349" height="106" viewBox="0 0 349 106" fill="none" xmlns="http://www.w3.org/2000/svg">
<g clip-path="url(#clip0_1_6)">
<path d="M46.7797 20.6563H113.22C113.885 20.6563 114.489 20.9052 114.925 21.3061C115.364 21.71 115.633 22.2662 115.633 22.8719V69.9132C115.633 70.5188 115.361 71.0725 114.923 71.4763C114.486 71.8772 113.885 72.1289 113.22 72.1289H97.1215L100.045 69.4018H112.664V23.3832H47.3366V69.4018H82.5223L79.5987 72.1289H46.7798C46.1149 72.1289 45.5113 71.88 45.0747 71.479C44.6381 71.0781 44.3671 70.5238 44.3671 69.9132V22.8719C44.3671 22.2612 44.6381 21.7069 45.0747 21.306C45.5144 20.9035 46.12 20.6563 46.7797 20.6563Z" fill="#0E0AE6"/>
<path d="M50.9158 61.7604C50.3179 62.3095 50.3179 63.1998 50.9158 63.7489C51.5137 64.298 52.4832 64.298 53.0811 63.7489L71.2997 47.0176L85.0641 59.6584C85.662 60.2075 86.6315 60.2075 87.2294 59.6584C87.8273 59.1093 87.8273 58.219 87.2294 57.6699L72.3908 44.0426C71.7929 43.4935 70.8148 43.4855 70.2168 44.0346L50.9158 61.7604Z" fill="#0E0AE6"/>
<path d="M78.3829 51.5341C77.785 52.0832 77.785 52.9736 78.3829 53.5227C78.9808 54.0717 79.9503 54.0717 80.5482 53.5227L93.1545 41.9454L106.919 54.5862C107.517 55.1353 108.486 55.1353 109.084 54.5862C109.682 54.0371 109.682 53.1467 109.084 52.5976L94.2457 38.9704C93.6478 38.4213 92.6697 38.4133 92.0717 38.9624L78.3829 51.5341Z" fill="#0E0AE6"/>
<path d="M62.3913 28.6242C64.4539 28.6242 66.3215 29.3921 67.6733 30.6336C69.0252 31.8751 69.8614 33.5902 69.8614 35.4845C69.8614 37.3788 69.0251 39.0939 67.6733 40.3353C66.3215 41.5768 64.4539 42.3448 62.3913 42.3448C60.3286 42.3448 58.461 41.5768 57.1093 40.3353C55.7574 39.0939 54.9212 37.3788 54.9212 35.4845C54.9212 33.5902 55.7574 31.8751 57.1093 30.6336C58.461 29.3921 60.3286 28.6242 62.3913 28.6242ZM65.508 32.6222C64.7106 31.8898 63.6085 31.4367 62.3913 31.4367C61.174 31.4367 60.072 31.8898 59.2746 32.6222C58.4771 33.3545 57.9838 34.3666 57.9838 35.4845C57.9838 36.6024 58.4771 37.6145 59.2746 38.3468C60.072 39.0791 61.174 39.5322 62.3913 39.5322C63.6086 39.5322 64.7106 39.0791 65.508 38.3468C66.3055 37.6144 66.7988 36.6024 66.7988 35.4845C66.7988 34.3666 66.3055 33.3545 65.508 32.6222Z" fill="#0E0AE6"/>
<path d="M80.9742 74.2174L86.2 78.9424L84.0586 80.942L78.8328 76.217L80.9742 74.2174Z" fill="#0E0AE6"/>
<path d="M98.3387 58.02L103.565 62.7452L101.423 64.7447L96.1974 60.0196L98.3387 58.02Z" fill="#0E0AE6"/>
<path d="M85.7614 81.1727L76.2005 85.3438L74.217 83.5595L78.5522 74.6633L78.8479 74.2638L99.5086 54.992C100.049 54.4911 100.72 54.1574 101.354 54.0363C102.199 53.8749 103.024 54.0463 103.625 54.5895L107.217 57.838C107.82 58.3827 108.02 59.1375 107.857 59.9149C107.735 60.5013 107.388 61.1182 106.846 61.6239L86.1848 80.8957L85.7614 81.1727ZM78.5594 81.3024L84.2596 78.8155L104.734 59.7171C104.798 59.658 104.848 59.5992 104.884 59.5439L101.804 56.7598C101.745 56.7936 101.683 56.8401 101.62 56.8987L81.1444 75.9976L78.5594 81.3024Z" fill="#0E0AE6"/>
</g>
<path d="M148.004 49.0273C148.772 49.9388 149.365 51 149.781 52.2109C150.211 53.4089 150.426 54.7826 150.426 56.332C150.426 57.8555 150.172 59.2487 149.664 60.5117C149.156 61.7617 148.486 62.8294 147.652 63.7148C146.78 64.6133 145.81 65.3034 144.742 65.7852C143.674 66.2669 142.542 66.5078 141.344 66.5078C140.185 66.5078 139.234 66.3776 138.492 66.1172C137.75 65.8568 137.145 65.5508 136.676 65.1992H136.52V70.9805C136.52 71.4492 136.611 71.8398 136.793 72.1523C136.975 72.4648 137.255 72.6927 137.633 72.8359C137.945 72.9531 138.388 73.0638 138.961 73.168C139.547 73.2852 140.029 73.3503 140.406 73.3633V74.6719H129.645V73.3633C130.048 73.3372 130.439 73.3047 130.816 73.2656C131.194 73.2266 131.533 73.1615 131.832 73.0703C132.223 72.9401 132.496 72.7122 132.652 72.3867C132.809 72.0612 132.887 71.6771 132.887 71.2344V50.7461C132.887 50.3555 132.789 49.9779 132.594 49.6133C132.398 49.2487 132.145 48.9557 131.832 48.7344C131.598 48.5781 131.272 48.4609 130.855 48.3828C130.439 48.2917 130.035 48.2331 129.645 48.207V46.9375L136.207 46.5078L136.48 46.7422V48.9102L136.637 48.9492C137.314 48.168 138.154 47.5169 139.156 46.9961C140.159 46.4753 141.155 46.2148 142.145 46.2148C143.342 46.2148 144.436 46.4688 145.426 46.9766C146.428 47.4844 147.288 48.168 148.004 49.0273ZM144.82 62.875C145.341 62.0677 145.725 61.1302 145.973 60.0625C146.22 58.9948 146.344 57.8034 146.344 56.4883C146.344 55.5247 146.24 54.5417 146.031 53.5391C145.823 52.5365 145.497 51.6641 145.055 50.9219C144.612 50.1667 144.033 49.5547 143.316 49.0859C142.6 48.6172 141.741 48.3828 140.738 48.3828C139.775 48.3828 138.954 48.5977 138.277 49.0273C137.6 49.444 137.014 49.9453 136.52 50.5312V61.918C136.637 62.2695 136.826 62.6341 137.086 63.0117C137.359 63.3893 137.659 63.7148 137.984 63.9883C138.388 64.3138 138.824 64.5807 139.293 64.7891C139.762 64.9844 140.335 65.082 141.012 65.082C141.741 65.082 142.444 64.8932 143.121 64.5156C143.798 64.125 144.365 63.5781 144.82 62.875ZM174.176 66H164.723V64.7109C165.022 64.6849 165.354 64.6589 165.719 64.6328C166.083 64.6068 166.383 64.5547 166.617 64.4766C166.982 64.3594 167.249 64.1576 167.418 63.8711C167.6 63.5716 167.691 63.1875 167.691 62.7188V52.8164C167.691 51.4492 167.366 50.3945 166.715 49.6523C166.077 48.9102 165.296 48.5391 164.371 48.5391C163.694 48.5391 163.062 48.6497 162.477 48.8711C161.904 49.0794 161.389 49.3398 160.934 49.6523C160.491 49.9779 160.152 50.3034 159.918 50.6289C159.684 50.9544 159.501 51.2279 159.371 51.4492V62.5234C159.371 62.9661 159.456 63.3307 159.625 63.6172C159.807 63.9036 160.081 64.125 160.445 64.2812C160.732 64.4115 161.025 64.5091 161.324 64.5742C161.637 64.6393 161.975 64.6849 162.34 64.7109V66H152.887V64.7109C153.186 64.6849 153.499 64.6589 153.824 64.6328C154.15 64.5938 154.423 64.5417 154.645 64.4766C155.009 64.3594 155.283 64.1576 155.465 63.8711C155.647 63.5716 155.738 63.1875 155.738 62.7188V40.2969C155.738 39.8542 155.634 39.4115 155.426 38.9688C155.23 38.526 154.97 38.194 154.645 37.9727C154.41 37.8034 153.993 37.6862 153.395 37.6211C152.809 37.543 152.333 37.4909 151.969 37.4648V36.2148L159.098 35.7656L159.371 36.0586V49.4961H159.449C159.879 49.0664 160.27 48.6888 160.621 48.3633C160.973 48.0247 161.435 47.6732 162.008 47.3086C162.503 46.9961 163.082 46.7357 163.746 46.5273C164.423 46.319 165.178 46.2148 166.012 46.2148C167.73 46.2148 169.052 46.7617 169.977 47.8555C170.901 48.9362 171.363 50.4987 171.363 52.543V62.5625C171.363 63.0182 171.441 63.3893 171.598 63.6758C171.767 63.9492 172.04 64.1641 172.418 64.3203C172.717 64.4375 172.984 64.5286 173.219 64.5938C173.466 64.6458 173.785 64.6849 174.176 64.7109V66ZM195.309 56.1758C195.309 57.5299 195.094 58.8646 194.664 60.1797C194.234 61.4818 193.622 62.5885 192.828 63.5C191.93 64.5417 190.888 65.3164 189.703 65.8242C188.518 66.332 187.19 66.5859 185.719 66.5859C184.495 66.5859 183.329 66.3581 182.223 65.9023C181.116 65.4336 180.133 64.7565 179.273 63.8711C178.427 62.9987 177.75 61.9375 177.242 60.6875C176.747 59.4245 176.5 58.0117 176.5 56.4492C176.5 53.4414 177.372 50.9805 179.117 49.0664C180.875 47.1523 183.173 46.1953 186.012 46.1953C188.707 46.1953 190.927 47.1068 192.672 48.9297C194.43 50.7396 195.309 53.1549 195.309 56.1758ZM191.266 56.2148C191.266 55.2383 191.168 54.2096 190.973 53.1289C190.777 52.0352 190.484 51.1107 190.094 50.3555C189.677 49.5482 189.13 48.9036 188.453 48.4219C187.776 47.9271 186.949 47.6797 185.973 47.6797C184.97 47.6797 184.111 47.9271 183.395 48.4219C182.691 48.9167 182.118 49.5938 181.676 50.4531C181.259 51.2474 180.966 52.1523 180.797 53.168C180.628 54.1836 180.543 55.1667 180.543 56.1172C180.543 57.3672 180.641 58.526 180.836 59.5938C181.044 60.6484 181.37 61.5924 181.812 62.4258C182.255 63.2591 182.809 63.9167 183.473 64.3984C184.15 64.8672 184.983 65.1016 185.973 65.1016C187.6 65.1016 188.889 64.3138 189.84 62.7383C190.79 61.1628 191.266 58.9883 191.266 56.2148ZM209.996 65.1602C209.15 65.5117 208.349 65.8047 207.594 66.0391C206.839 66.2865 205.914 66.4102 204.82 66.4102C203.206 66.4102 202.066 66.0065 201.402 65.1992C200.751 64.3789 200.426 63.2266 200.426 61.7422V48.6953H196.949V46.8203H200.504V40.8242H204.059V46.8203H209.586V48.6953H204.098V59.457C204.098 60.2643 204.124 60.9414 204.176 61.4883C204.241 62.0221 204.384 62.4909 204.605 62.8945C204.814 63.2721 205.126 63.5586 205.543 63.7539C205.96 63.9492 206.52 64.0469 207.223 64.0469C207.548 64.0469 208.023 64.0208 208.648 63.9688C209.286 63.9036 209.736 63.8255 209.996 63.7344V65.1602ZM230.699 56.1758C230.699 57.5299 230.484 58.8646 230.055 60.1797C229.625 61.4818 229.013 62.5885 228.219 63.5C227.32 64.5417 226.279 65.3164 225.094 65.8242C223.909 66.332 222.581 66.5859 221.109 66.5859C219.885 66.5859 218.72 66.3581 217.613 65.9023C216.507 65.4336 215.523 64.7565 214.664 63.8711C213.818 62.9987 213.141 61.9375 212.633 60.6875C212.138 59.4245 211.891 58.0117 211.891 56.4492C211.891 53.4414 212.763 50.9805 214.508 49.0664C216.266 47.1523 218.564 46.1953 221.402 46.1953C224.098 46.1953 226.318 47.1068 228.062 48.9297C229.82 50.7396 230.699 53.1549 230.699 56.1758ZM226.656 56.2148C226.656 55.2383 226.559 54.2096 226.363 53.1289C226.168 52.0352 225.875 51.1107 225.484 50.3555C225.068 49.5482 224.521 48.9036 223.844 48.4219C223.167 47.9271 222.34 47.6797 221.363 47.6797C220.361 47.6797 219.501 47.9271 218.785 48.4219C218.082 48.9167 217.509 49.5938 217.066 50.4531C216.65 51.2474 216.357 52.1523 216.188 53.168C216.018 54.1836 215.934 55.1667 215.934 56.1172C215.934 57.3672 216.031 58.526 216.227 59.5938C216.435 60.6484 216.76 61.5924 217.203 62.4258C217.646 63.2591 218.199 63.9167 218.863 64.3984C219.54 64.8672 220.374 65.1016 221.363 65.1016C222.991 65.1016 224.28 64.3138 225.23 62.7383C226.181 61.1628 226.656 58.9883 226.656 56.2148ZM247.828 38.0898C247.828 38.6758 247.672 39.1706 247.359 39.5742C247.047 39.9779 246.572 40.1797 245.934 40.1797C245.53 40.1797 245.172 40.0951 244.859 39.9258C244.56 39.7565 244.28 39.5286 244.02 39.2422C243.759 38.9557 243.518 38.6302 243.297 38.2656C243.076 37.901 242.887 37.6081 242.73 37.3867C241.858 37.4258 241.181 38.0378 240.699 39.2227C240.23 40.3945 239.996 42.2695 239.996 44.8477V46.8203H244.957V48.6953H239.996V62.5234C239.996 62.9792 240.081 63.3503 240.25 63.6367C240.432 63.9232 240.712 64.138 241.09 64.2812C241.402 64.3984 241.819 64.4961 242.34 64.5742C242.861 64.6393 243.31 64.6849 243.688 64.7109V66H233.531V64.7109C233.831 64.6849 234.137 64.6589 234.449 64.6328C234.775 64.6068 235.055 64.5547 235.289 64.4766C235.654 64.3594 235.921 64.1576 236.09 63.8711C236.272 63.5716 236.363 63.1875 236.363 62.7188V48.6953H232.555V46.8203H236.363V45.5898C236.363 42.6602 237.118 40.2904 238.629 38.4805C240.152 36.6576 242.053 35.7461 244.332 35.7461C245.491 35.7461 246.363 35.974 246.949 36.4297C247.535 36.8854 247.828 37.4388 247.828 38.0898ZM255.523 66H246.129V64.7109C246.428 64.6849 246.747 64.6589 247.086 64.6328C247.424 64.5938 247.704 64.5417 247.926 64.4766C248.29 64.3594 248.564 64.1576 248.746 63.8711C248.928 63.5716 249.02 63.1875 249.02 62.7188V40.4141C249.02 39.9453 248.915 39.5091 248.707 39.1055C248.512 38.6888 248.251 38.3633 247.926 38.1289C247.691 37.9727 247.262 37.8294 246.637 37.6992C246.012 37.569 245.51 37.4909 245.133 37.4648V36.2148L252.379 35.7656L252.652 36.0586V62.4844C252.652 62.9401 252.737 63.3177 252.906 63.6172C253.076 63.9036 253.349 64.125 253.727 64.2812C254.013 64.4115 254.293 64.5091 254.566 64.5742C254.853 64.6393 255.172 64.6849 255.523 64.7109V66ZM276.188 65.6484C275.576 65.8698 275.035 66.0456 274.566 66.1758C274.111 66.319 273.59 66.3906 273.004 66.3906C271.988 66.3906 271.174 66.1562 270.562 65.6875C269.964 65.2057 269.579 64.5091 269.41 63.5977H269.293C268.447 64.5352 267.535 65.2513 266.559 65.7461C265.595 66.2409 264.43 66.4883 263.062 66.4883C261.617 66.4883 260.426 66.0456 259.488 65.1602C258.564 64.2747 258.102 63.1159 258.102 61.6836C258.102 60.9414 258.206 60.2773 258.414 59.6914C258.622 59.1055 258.935 58.5781 259.352 58.1094C259.677 57.7188 260.107 57.3737 260.641 57.0742C261.174 56.7617 261.676 56.5143 262.145 56.332C262.73 56.1107 263.915 55.7005 265.699 55.1016C267.496 54.5026 268.707 54.0339 269.332 53.6953V51.7617C269.332 51.5924 269.293 51.2669 269.215 50.7852C269.15 50.3034 269 49.8477 268.766 49.418C268.505 48.9362 268.134 48.5195 267.652 48.168C267.184 47.8034 266.513 47.6211 265.641 47.6211C265.042 47.6211 264.482 47.7253 263.961 47.9336C263.453 48.1289 263.095 48.3372 262.887 48.5586C262.887 48.819 262.945 49.2031 263.062 49.7109C263.193 50.2188 263.258 50.6875 263.258 51.1172C263.258 51.5729 263.049 51.9896 262.633 52.3672C262.229 52.7448 261.663 52.9336 260.934 52.9336C260.283 52.9336 259.801 52.7057 259.488 52.25C259.189 51.7812 259.039 51.2604 259.039 50.6875C259.039 50.0885 259.247 49.5156 259.664 48.9688C260.094 48.4219 260.647 47.9336 261.324 47.5039C261.91 47.1393 262.62 46.8333 263.453 46.5859C264.286 46.3255 265.1 46.1953 265.895 46.1953C266.988 46.1953 267.939 46.2734 268.746 46.4297C269.566 46.5729 270.309 46.8919 270.973 47.3867C271.637 47.8685 272.138 48.526 272.477 49.3594C272.828 50.1797 273.004 51.2409 273.004 52.543C273.004 54.4049 272.984 56.0586 272.945 57.5039C272.906 58.9362 272.887 60.5052 272.887 62.2109C272.887 62.7188 272.971 63.1224 273.141 63.4219C273.323 63.7214 273.596 63.9753 273.961 64.1836C274.156 64.3008 274.462 64.3659 274.879 64.3789C275.309 64.3919 275.745 64.3984 276.188 64.3984V65.6484ZM269.371 55.3359C268.264 55.6615 267.294 55.9805 266.461 56.293C265.628 56.6055 264.853 56.9961 264.137 57.4648C263.486 57.9076 262.971 58.4349 262.594 59.0469C262.216 59.6458 262.027 60.362 262.027 61.1953C262.027 62.276 262.307 63.0703 262.867 63.5781C263.44 64.0859 264.163 64.3398 265.035 64.3398C265.96 64.3398 266.773 64.1185 267.477 63.6758C268.18 63.2201 268.772 62.6862 269.254 62.0742L269.371 55.3359ZM290.816 56.5664C291.35 57.0352 291.76 57.5755 292.047 58.1875C292.333 58.7995 292.477 59.5482 292.477 60.4336C292.477 62.2174 291.806 63.6758 290.465 64.8086C289.137 65.9414 287.411 66.5078 285.289 66.5078C284.169 66.5078 283.134 66.306 282.184 65.9023C281.246 65.4987 280.576 65.1276 280.172 64.7891L279.781 66.0586H278.316L278.121 59.3594H279.469C279.573 59.8672 279.794 60.4596 280.133 61.1367C280.471 61.8138 280.882 62.4258 281.363 62.9727C281.871 63.5456 282.477 64.0273 283.18 64.418C283.896 64.8086 284.697 65.0039 285.582 65.0039C286.832 65.0039 287.796 64.724 288.473 64.1641C289.15 63.5911 289.488 62.7773 289.488 61.7227C289.488 61.1758 289.378 60.707 289.156 60.3164C288.948 59.9128 288.635 59.5612 288.219 59.2617C287.789 58.9622 287.262 58.6953 286.637 58.4609C286.012 58.2135 285.315 57.9727 284.547 57.7383C283.935 57.556 283.251 57.3086 282.496 56.9961C281.754 56.6706 281.116 56.293 280.582 55.8633C280.009 55.4076 279.54 54.8477 279.176 54.1836C278.811 53.5195 278.629 52.7383 278.629 51.8398C278.629 50.2643 279.215 48.9297 280.387 47.8359C281.559 46.7422 283.128 46.1953 285.094 46.1953C285.849 46.1953 286.617 46.293 287.398 46.4883C288.193 46.6836 288.837 46.918 289.332 47.1914L289.781 46.1758H291.188L291.48 52.3672H290.133C289.859 50.987 289.267 49.8672 288.355 49.0078C287.457 48.1354 286.357 47.6992 285.055 47.6992C283.987 47.6992 283.147 47.9661 282.535 48.5C281.923 49.0339 281.617 49.6784 281.617 50.4336C281.617 51.0195 281.715 51.5078 281.91 51.8984C282.118 52.2891 282.424 52.6211 282.828 52.8945C283.219 53.1549 283.707 53.4023 284.293 53.6367C284.892 53.8581 285.628 54.112 286.5 54.3984C287.359 54.6719 288.167 54.9909 288.922 55.3555C289.69 55.7201 290.322 56.1237 290.816 56.5664ZM316.324 66H306.871V64.7109C307.171 64.6849 307.503 64.6589 307.867 64.6328C308.232 64.6068 308.531 64.5547 308.766 64.4766C309.13 64.3594 309.397 64.1576 309.566 63.8711C309.749 63.5716 309.84 63.1875 309.84 62.7188V52.8164C309.84 51.4492 309.514 50.3945 308.863 49.6523C308.225 48.9102 307.444 48.5391 306.52 48.5391C305.842 48.5391 305.211 48.6497 304.625 48.8711C304.052 49.0794 303.538 49.3398 303.082 49.6523C302.639 49.9779 302.301 50.3034 302.066 50.6289C301.832 50.9544 301.65 51.2279 301.52 51.4492V62.5234C301.52 62.9661 301.604 63.3307 301.773 63.6172C301.956 63.9036 302.229 64.125 302.594 64.2812C302.88 64.4115 303.173 64.5091 303.473 64.5742C303.785 64.6393 304.124 64.6849 304.488 64.7109V66H295.035V64.7109C295.335 64.6849 295.647 64.6589 295.973 64.6328C296.298 64.5938 296.572 64.5417 296.793 64.4766C297.158 64.3594 297.431 64.1576 297.613 63.8711C297.796 63.5716 297.887 63.1875 297.887 62.7188V40.2969C297.887 39.8542 297.783 39.4115 297.574 38.9688C297.379 38.526 297.118 38.194 296.793 37.9727C296.559 37.8034 296.142 37.6862 295.543 37.6211C294.957 37.543 294.482 37.4909 294.117 37.4648V36.2148L301.246 35.7656L301.52 36.0586V49.4961H301.598C302.027 49.0664 302.418 48.6888 302.77 48.3633C303.121 48.0247 303.583 47.6732 304.156 47.3086C304.651 46.9961 305.23 46.7357 305.895 46.5273C306.572 46.319 307.327 46.2148 308.16 46.2148C309.879 46.2148 311.201 46.7617 312.125 47.8555C313.049 48.9362 313.512 50.4987 313.512 52.543V62.5625C313.512 63.0182 313.59 63.3893 313.746 63.6758C313.915 63.9492 314.189 64.1641 314.566 64.3203C314.866 64.4375 315.133 64.5286 315.367 64.5938C315.615 64.6458 315.934 64.6849 316.324 64.7109V66Z" fill="#0E0AE6"/>
<defs>
<clipPath id="clip0_1_6">
<rect width="98" height="90" fill="white" transform="translate(31 8)"/>
</clipPath>
</defs>
</svg>
